TITLE ""
FILE "2Q_t_0371-0387.mp3" MP3
  TRACK 01 AUDIO
    TITLE "2Q_t_0371-0387_01"
    INDEX 01 00:00:00
  TRACK 02 AUDIO
    TITLE "2Q_t_0371-0387_02"
    INDEX 01 00:01:25
  TRACK 03 AUDIO
    TITLE "2Q_t_0371-0387_03"
    INDEX 01 00:02:01
  TRACK 04 AUDIO
    TITLE "2Q_t_0371-0387_04"
    INDEX 01 00:04:12
  TRACK 05 AUDIO
    TITLE "2Q_t_0371-0387_05"
    INDEX 01 00:04:55
  TRACK 06 AUDIO
    TITLE "2Q_t_0371-0387_06"
    INDEX 01 00:05:49
  TRACK 07 AUDIO
    TITLE "2Q_t_0371-0387_07"
    INDEX 01 00:06:27
  TRACK 08 AUDIO
    TITLE "2Q_t_0371-0387_08"
    INDEX 01 00:08:39
  TRACK 09 AUDIO
    TITLE "2Q_t_0371-0387_09"
    INDEX 01 00:09:13
  TRACK 10 AUDIO
    TITLE "2Q_t_0371-0387_10"
    INDEX 01 00:10:36
  TRACK 11 AUDIO
    TITLE "2Q_t_0371-0387_11"
    INDEX 01 00:11:10
  TRACK 12 AUDIO
    TITLE "2Q_t_0371-0387_12"
    INDEX 01 00:13:17
  TRACK 13 AUDIO
    TITLE "2Q_t_0371-0387_13"
    INDEX 01 00:13:62
  TRACK 14 AUDIO
    TITLE "2Q_t_0371-0387_14"
    INDEX 01 00:14:61
  TRACK 15 AUDIO
    TITLE "2Q_t_0371-0387_15"
    INDEX 01 00:15:37
  TRACK 16 AUDIO
    TITLE "2Q_t_0371-0387_16"
    INDEX 01 00:17:34
  TRACK 17 AUDIO
    TITLE "2Q_t_0371-0387_17"
    INDEX 01 00:18:04
  TRACK 18 AUDIO
    TITLE "2Q_t_0371-0387_18"
    INDEX 01 00:19:15
  TRACK 19 AUDIO
    TITLE "2Q_t_0371-0387_19"
    INDEX 01 00:19:61
  TRACK 20 AUDIO
    TITLE "2Q_t_0371-0387_20"
    INDEX 01 00:22:61
  TRACK 21 AUDIO
    TITLE "2Q_t_0371-0387_21"
    INDEX 01 00:23:31
  TRACK 22 AUDIO
    TITLE "2Q_t_0371-0387_22"
    INDEX 01 00:24:36
  TRACK 23 AUDIO
    TITLE "2Q_t_0371-0387_23"
    INDEX 01 00:25:10
  TRACK 24 AUDIO
    TITLE "2Q_t_0371-0387_24"
    INDEX 01 00:27:33
  TRACK 25 AUDIO
    TITLE "2Q_t_0371-0387_25"
    INDEX 01 00:28:03
  TRACK 26 AUDIO
    TITLE "2Q_t_0371-0387_26"
    INDEX 01 00:29:34
  TRACK 27 AUDIO
    TITLE "2Q_t_0371-0387_27"
    INDEX 01 00:30:04
  TRACK 28 AUDIO
    TITLE "2Q_t_0371-0387_28"
    INDEX 01 00:32:18
  TRACK 29 AUDIO
    TITLE "2Q_t_0371-0387_29"
    INDEX 01 00:32:63
  TRACK 30 AUDIO
    TITLE "2Q_t_0371-0387_30"
    INDEX 01 00:34:03
  TRACK 31 AUDIO
    TITLE "2Q_t_0371-0387_31"
    INDEX 01 00:34:48
  TRACK 32 AUDIO
    TITLE "2Q_t_0371-0387_32"
    INDEX 01 00:35:60
  TRACK 33 AUDIO
    TITLE "2Q_t_0371-0387_33"
    INDEX 01 00:36:30
  TRACK 34 AUDIO
    TITLE "2Q_t_0371-0387_34"
    INDEX 01 00:37:33
  TRACK 35 AUDIO
    TITLE "2Q_t_0371-0387_35"
    INDEX 01 00:38:09
  TRACK 36 AUDIO
    TITLE "2Q_t_0371-0387_36"
    INDEX 01 00:39:69
  TRACK 37 AUDIO
    TITLE "2Q_t_0371-0387_37"
    INDEX 01 00:40:39
  TRACK 38 AUDIO
    TITLE "2Q_t_0371-0387_38"
    INDEX 01 00:41:45
  TRACK 39 AUDIO
    TITLE "2Q_t_0371-0387_39"
    INDEX 01 00:42:19
  TRACK 40 AUDIO
    TITLE "2Q_t_0371-0387_40"
    INDEX 01 00:43:24
  TRACK 41 AUDIO
    TITLE "2Q_t_0371-0387_41"
    INDEX 01 00:43:67
  TRACK 42 AUDIO
    TITLE "2Q_t_0371-0387_42"
    INDEX 01 00:45:17
  TRACK 43 AUDIO
    TITLE "2Q_t_0371-0387_43"
    INDEX 01 00:45:60
  TRACK 44 AUDIO
    TITLE "2Q_t_0371-0387_44"
    INDEX 01 00:46:73
  TRACK 45 AUDIO
    TITLE "2Q_t_0371-0387_45"
    INDEX 01 00:47:43
  TRACK 46 AUDIO
    TITLE "2Q_t_0371-0387_46"
    INDEX 01 00:48:56
  TRACK 47 AUDIO
    TITLE "2Q_t_0371-0387_47"
    INDEX 01 00:49:26
  TRACK 48 AUDIO
    TITLE "2Q_t_0371-0387_48"
    INDEX 01 00:50:32
  TRACK 49 AUDIO
    TITLE "2Q_t_0371-0387_49"
    INDEX 01 00:51:04
  TRACK 50 AUDIO
    TITLE "2Q_t_0371-0387_50"
    INDEX 01 00:53:63
  TRACK 51 AUDIO
    TITLE "2Q_t_0371-0387_51"
    INDEX 01 00:54:33
  TRACK 52 AUDIO
    TITLE "2Q_t_0371-0387_52"
    INDEX 01 00:55:72
  TRACK 53 AUDIO
    TITLE "2Q_t_0371-0387_53"
    INDEX 01 00:56:46
  TRACK 54 AUDIO
    TITLE "2Q_t_0371-0387_54"
    INDEX 01 00:57:67
  TRACK 55 AUDIO
    TITLE "2Q_t_0371-0387_55"
    INDEX 01 00:58:35
  TRACK 56 AUDIO
    TITLE "2Q_t_0371-0387_56"
    INDEX 01 00:59:44
  TRACK 57 AUDIO
    TITLE "2Q_t_0371-0387_57"
    INDEX 01 01:00:14
  TRACK 58 AUDIO
    TITLE "2Q_t_0371-0387_58"
    INDEX 01 01:02:31
  TRACK 59 AUDIO
    TITLE "2Q_t_0371-0387_59"
    INDEX 01 01:03:01
  TRACK 60 AUDIO
    TITLE "2Q_t_0371-0387_60"
    INDEX 01 01:04:18
  TRACK 61 AUDIO
    TITLE "2Q_t_0371-0387_61"
    INDEX 01 01:04:67
  TRACK 62 AUDIO
    TITLE "2Q_t_0371-0387_62"
    INDEX 01 01:06:27
  TRACK 63 AUDIO
    TITLE "2Q_t_0371-0387_63"
    INDEX 01 01:06:72
  TRACK 64 AUDIO
    TITLE "2Q_t_0371-0387_64"
    INDEX 01 01:08:06
  TRACK 65 AUDIO
    TITLE "2Q_t_0371-0387_65"
    INDEX 01 01:08:53
  TRACK 66 AUDIO
    TITLE "2Q_t_0371-0387_66"
    INDEX 01 01:09:66
  TRACK 67 AUDIO
    TITLE "2Q_t_0371-0387_67"
    INDEX 01 01:10:36
  TRACK 68 AUDIO
    TITLE "2Q_t_0371-0387_68"
    INDEX 01 01:11:52
  TRACK 69 AUDIO
    TITLE "2Q_t_0371-0387_69"
    INDEX 01 01:12:25
  TRACK 70 AUDIO
    TITLE "2Q_t_0371-0387_70"
    INDEX 01 01:15:08
